# xmcd CD database file
#
# Track frame offsets:
#	150
#	25992
#	52724
#
# Disc length: 1046 seconds
#
# Revision: 6
# Processed by: cddbd v1.5.2PL0 Copyright (c) Steve Scherf et al.
# Submitted via: CDex 1.51
#
DISCID=18041403
DTITLE=THE ALFEE - 希望の橋
DYEAR=2004
DGENRE=JPop
TTITLE0=希望の橋
TTITLE1=夜明けの星を目指して
TTITLE2=希望の橋～Original Instrumental～
EXTD=YEAR: 2004
EXTT0=
EXTT1=
EXTT2=
PLAYORDER=
